<?xml version="1.0" standalone="no"?>
<svg viewBox="0 0 200 200" xmlns="http://www.w3.org/2000/svg">
  <path fill="#C147E9" d="M44.2,-68.5C56.8,-69.2,66.3,-56.5,65.2,-42.8C64.2,-29.2,52.6,-14.6,49.5,-1.8C46.4,11,51.9,22.1,47.6,26.4C43.2,30.7,29,28.2,19.5,31.7C9.9,35.1,5,44.4,-0.9,46C-6.8,47.5,-13.5,41.3,-21.1,36.8C-28.7,32.2,-37,29.2,-46.1,23.3C-55.1,17.5,-64.8,8.7,-71.1,-3.6C-77.4,-16,-80.3,-32,-75.4,-45.2C-70.6,-58.3,-58.1,-68.6,-44.2,-67.3C-30.4,-65.9,-15.2,-52.8,0.3,-53.3C15.8,-53.8,31.5,-67.9,44.2,-68.5Z" transform="translate(100 100)" />
</svg>
